<?xml version="1.0" standalone="no"?><!DOCTYPE svg PUBLIC "-//W3C//DTD SVG 1.1//EN" "http://www.w3.org/Graphics/SVG/1.1/DTD/svg11.dtd"><svg t="1554972994238" class="icon" style="" viewBox="0 0 1024 1024" version="1.1" xmlns="http://www.w3.org/2000/svg" p-id="4936" xmlns:xlink="http://www.w3.org/1999/xlink" width="200" height="200"><defs><style type="text/css"></style></defs><path d="M679.63871 422.812903V309.677419c0-2.477419-1.651613-4.129032-4.129033-4.129032h-50.374193c-2.477419 0-4.129032 1.651613-4.129032 4.129032v26.425807c0 15.690323-9.909677 22.296774-18.993549 22.296774-4.129032 0-9.909677-1.651613-16.516129-8.258065l-66.064516-66.064516c-0.825806-0.825806-2.477419-1.651613-3.303226-1.651613-0.825806 0-1.651613 0-3.303226 1.651613L293.987097 494.658065c14.864516 2.477419 26.425806 14.864516 26.425806 30.554838v211.406452c0 2.477419 1.651613 4.129032 4.129032 4.129032h132.954839c2.477419 0 4.129032-1.651613 4.129032-4.129032V635.045161c0-17.341935 14.03871-31.380645 31.380646-31.380645h47.070967c17.341935 0 31.380645 14.03871 31.380646 31.380645v100.748387c0 2.477419 1.651613 4.129032 4.129032 4.129033h123.870968c2.477419 0 4.129032-1.651613 4.129032-4.129033V525.212903c0-15.690323 11.56129-28.903226 26.425806-30.554838L695.329032 462.451613c-9.083871-9.909677-15.690323-26.425806-15.690322-39.63871z" fill="#FC8C48" p-id="4937"></path><path d="M512 0C229.574194 0 0 229.574194 0 512s229.574194 512 512 512 512-229.574194 512-512S794.425806 0 512 0z m252.696774 508.696774c-1.651613 3.303226-6.606452 11.56129-21.470968 11.561291h-8.258064c-2.477419 0-4.129032 1.651613-4.129032 4.129032v211.406451c0 17.341935-14.03871 31.380645-31.380645 31.380646h-123.870968c-17.341935 0-31.380645-14.03871-31.380645-31.380646V635.045161c0-2.477419-1.651613-4.129032-4.129033-4.129032h-47.070967c-2.477419 0-4.129032 1.651613-4.129033 4.129032v100.748387c0 17.341935-14.03871 31.380645-31.380645 31.380646H324.541935c-17.341935 0-31.380645-14.03871-31.380645-31.380646V525.212903c0-2.477419-1.651613-4.129032-4.129032-4.129032h-9.083871c-14.864516 0-19.819355-8.258065-21.470968-11.56129-1.651613-3.303226-4.129032-13.212903 6.606452-23.122581l228.748387-219.664516c5.780645-5.780645 14.03871-9.083871 22.296774-9.083871 8.258065 0 15.690323 3.303226 21.470968 9.083871l55.329032 56.154839v-11.561291c0-17.341935 14.03871-31.380645 31.380645-31.380645h50.374194c17.341935 0 31.380645 14.03871 31.380645 31.380645v113.135484c0 6.606452 4.129032 16.516129 8.258065 21.470968l43.767742 41.290322c10.735484 9.083871 8.258065 18.167742 6.606451 21.470968z" fill="#FC8C48" p-id="4938"></path><path d="M714.322581 443.458065c-4.129032-4.954839-8.258065-14.864516-8.258065-21.470968V309.677419c0-17.341935-14.03871-31.380645-31.380645-31.380645h-50.374194c-17.341935 0-31.380645 14.03871-31.380645 31.380645v11.561291l-55.329032-56.154839c-5.780645-5.780645-13.212903-9.083871-21.470968-9.083871s-16.516129 3.303226-22.296774 9.083871L265.083871 485.574194c-9.909677 10.735484-8.258065 19.819355-6.606452 23.12258 1.651613 3.303226 6.606452 11.56129 21.470968 11.561291H289.032258c2.477419 0 4.129032 1.651613 4.129032 4.129032v211.406451c0 17.341935 14.03871 31.380645 31.380645 31.380646h132.954839c17.341935 0 31.380645-14.03871 31.380645-31.380646V635.045161c0-2.477419 1.651613-4.129032 4.129033-4.129032h47.070967c2.477419 0 4.129032 1.651613 4.129033 4.129032v100.748387c0 17.341935 14.03871 31.380645 31.380645 31.380646h123.870968c17.341935 0 31.380645-14.03871 31.380645-31.380646V525.212903c0-2.477419 1.651613-4.129032 4.129032-4.129032h9.083871c14.864516 0 19.819355-8.258065 21.470968-11.56129 1.651613-3.303226 4.129032-13.212903-6.606452-23.122581l-44.593548-42.941935z m-10.735484 81.754838v211.406452c0 2.477419-1.651613 4.129032-4.129032 4.129032h-123.870968c-2.477419 0-4.129032-1.651613-4.129032-4.129032V635.045161c0-17.341935-14.03871-31.380645-31.380646-31.380645h-47.070967c-17.341935 0-31.380645 14.03871-31.380646 31.380645v100.748387c0 2.477419-1.651613 4.129032-4.129032 4.129033H324.541935c-2.477419 0-4.129032-1.651613-4.129032-4.129033V525.212903c0-15.690323-11.56129-28.077419-26.425806-30.554838l219.664516-210.580646c0.825806-0.825806 2.477419-1.651613 3.303226-1.651613 0.825806 0 1.651613 0 3.303226 1.651613l66.064516 66.064516c6.606452 6.606452 12.387097 8.258065 16.516129 8.258065 9.083871 0 18.993548-6.606452 18.993548-22.296774v-26.425807c0-2.477419 1.651613-4.129032 4.129032-4.129032h50.374194c2.477419 0 4.129032 1.651613 4.129032 4.129032v113.135484c0 13.212903 6.606452 30.554839 15.690323 39.63871l34.683871 32.206452c-15.690323 1.651613-27.251613 14.864516-27.251613 30.554838z" fill="#FFFFFF" p-id="4939"></path><path d="M877.006452 730.012903c-80.929032 0-146.993548 66.064516-146.993549 146.993549s66.064516 146.993548 146.993549 146.993548 146.993548-66.064516 146.993548-146.993548-66.064516-146.993548-146.993548-146.993549z m0 270.03871c-68.541935 0-123.045161-55.329032-123.045162-123.045161s55.329032-123.045161 123.045162-123.045162 123.045161 55.329032 123.045161 123.045162-55.329032 123.045161-123.045161 123.045161z" fill="#FFFFFF" p-id="4940"></path><path d="M956.283871 867.096774l-110.658065-71.019355c-2.477419-1.651613-5.780645-1.651613-8.258064 0-2.477419 1.651613-4.129032 4.129032-4.129032 6.606452v142.03871c0 2.477419 1.651613 5.780645 4.129032 6.606451 0.825806 0.825806 2.477419 0.825806 4.129032 0.825807s3.303226-0.825806 4.129032-1.651613l110.658065-71.019355c2.477419-1.651613 3.303226-4.129032 3.303226-6.606452 0.825806-1.651613-0.825806-4.129032-3.303226-5.780645z" fill="#FFFFFF" p-id="4941"></path><path d="M877.006452 745.703226c-71.845161 0-130.477419 58.632258-130.47742 130.477419s58.632258 130.477419 130.47742 130.47742 130.477419-58.632258 130.477419-130.47742-58.632258-130.477419-130.477419-130.477419z m79.277419 134.606451l-110.658065 71.019355c-1.651613 0.825806-2.477419 1.651613-4.129032 1.651613s-2.477419 0-4.129032-0.825806c-2.477419-1.651613-4.129032-4.129032-4.129032-6.606452V802.683871c0-2.477419 1.651613-5.780645 4.129032-6.606452 2.477419-1.651613 5.780645-1.651613 8.258064 0l110.658065 71.019355c2.477419 1.651613 3.303226 4.129032 3.303226 6.606452 0.825806 2.477419-0.825806 5.780645-3.303226 6.606451z" fill="#FCD424" p-id="4942"></path></svg>